<?xml version="1.0" encoding="UTF-8"?>
<svg version="1.1" xmlns="http://www.w3.org/2000/svg" width="1024" height="1024">
<path d="M0 0 C337.92 0 675.84 0 1024 0 C1024 337.92 1024 675.84 1024 1024 C686.08 1024 348.16 1024 0 1024 C0 686.08 0 348.16 0 0 Z " fill="#FAFAFA" transform="translate(0,0)"/>
<path d="M0 0 C5.37915575 0.00249159 10.75829492 -0.00657672 16.13744438 -0.01403749 C26.64605836 -0.02671917 37.15464671 -0.02858643 47.66326705 -0.02623723 C56.21322243 -0.02444672 64.76317008 -0.02621931 73.31312454 -0.03046167 C75.14558053 -0.03135445 75.14558053 -0.03135445 77.01505583 -0.03226527 C79.49761954 -0.03347715 81.98018324 -0.03469128 84.46274694 -0.03590765 C107.68928404 -0.04675781 130.91580659 -0.04463256 154.1423445 -0.0385228 C175.34000923 -0.03335468 196.537628 -0.04461088 217.73528365 -0.06362102 C239.56120119 -0.08304285 261.38709702 -0.0912479 283.21302325 -0.08749777 C295.44255367 -0.08559247 307.67204497 -0.08800761 319.90156829 -0.10221231 C330.31163078 -0.11418257 340.72163007 -0.11546808 351.13169352 -0.10342214 C356.43118778 -0.09757313 361.73056675 -0.09632242 367.03005302 -0.10842454 C422.57412446 -0.22653387 471.86562758 6.20838524 513.36203849 46.15110838 C547.97606792 81.71730367 556.37543323 129.58106075 556.30152214 177.46078551 C556.30267773 179.12079907 556.30426818 180.78081238 556.30624938 182.44082516 C556.31038254 186.95110491 556.30837953 191.4613632 556.30526316 195.97164297 C556.30298451 200.85585277 556.30650088 205.74005909 556.30924308 210.62426817 C556.31367362 220.17248798 556.3127364 229.72069989 556.30983044 239.26892 C556.30756558 247.03437894 556.30726857 254.79983568 556.30835426 262.56529486 C556.30858411 264.22758718 556.30858411 264.22758718 556.3088186 265.92346116 C556.30913835 268.17524592 556.30946256 270.42703067 556.30979119 272.67881543 C556.31263806 293.76001599 556.30937148 314.8412122 556.30399083 335.92241205 C556.29952413 353.98131236 556.30029915 372.04020624 556.30490959 390.09910643 C556.31027043 411.10695976 556.31236279 432.11480928 556.30929732 453.1226632 C556.3089788 455.36614418 556.30866443 457.60962516 556.30835426 459.85310614 C556.30819998 460.95673086 556.30804571 462.06035558 556.30788676 463.19742347 C556.30702609 470.94622186 556.30847478 478.69501781 556.31083381 486.44381583 C556.31364882 495.8975683 556.31285783 505.35131248 556.30755307 514.80506402 C556.30493884 519.62147548 556.30387203 524.43787316 556.30720222 529.2542845 C556.31021256 533.67521805 556.3084947 538.09612521 556.30322467 542.51705641 C556.30212047 544.10434093 556.30264641 545.69162774 556.30510046 547.27891075 C556.32670795 562.43395738 555.97742152 577.60985331 553.48703849 592.58860838 C553.31261222 593.64201415 553.13818595 594.69541991 552.95847404 595.78074706 C548.11916606 623.56861791 537.6551907 648.78854933 519.17453849 670.27610838 C518.37660881 671.21970213 517.57867912 672.16329588 516.75656974 673.13548338 C490.59240486 703.34158783 452.47474307 717.50544677 413.45490474 720.6391781 C396.33026424 721.84036483 379.13364482 721.56710786 361.97717786 721.55221677 C356.57893231 721.54972192 351.18070319 721.55879742 345.78246391 721.56625426 C335.24003146 721.57892703 324.69762457 721.58080433 314.15518578 721.578454 C305.57669132 721.57666251 296.99820454 721.57843815 288.41971099 721.58267844 C286.58020156 721.58357122 286.58020156 721.58357122 284.70353032 721.58448204 C282.21130714 721.58569393 279.71908397 721.58690807 277.2268608 721.58812442 C253.91727489 721.59897111 230.60770349 721.59685096 207.29811678 721.59073957 C186.03079859 721.58557153 164.76352622 721.59682805 143.49621709 721.61583779 C121.59112573 721.63526561 99.68605599 721.64346364 77.78095597 721.63971454 C65.510032 721.63781017 53.23914701 721.64021516 40.96823013 721.65442908 C30.52313949 721.66640702 20.07811185 721.66767638 9.63302024 721.65563891 C4.31706229 721.64979525 -0.99878081 721.64852389 -6.31473076 721.66064131 C-61.50811722 721.77767399 -111.52627048 716.44107284 -152.82546151 676.27610838 C-192.14666797 636.38502936 -195.15857762 581.79832615 -195.08691084 529.18192935 C-195.08233452 524.19958409 -195.08939543 519.21725215 -195.09487069 514.23490965 C-195.10371152 504.50568655 -195.10186659 494.7764945 -195.0960454 485.04727023 C-195.09150812 477.13276908 -195.0909249 469.21827656 -195.09309304 461.30377448 C-195.0933995 460.17256918 -195.09370597 459.04136388 -195.09402172 457.87587963 C-195.09466124 455.577074 -195.09530967 453.27826838 -195.09596691 450.97946275 C-195.10165457 429.48082814 -195.09513679 407.98221066 -195.08436617 386.48357887 C-195.07543088 368.0792084 -195.07698558 349.67486317 -195.08620369 331.27049315 C-195.09693194 309.84138526 -195.10110667 288.41229233 -195.09497917 266.98318213 C-195.09434214 264.6936636 -195.0937134 262.40414506 -195.09309304 260.11462653 C-195.09278449 258.98845759 -195.09247594 257.86228865 -195.09215803 256.70199339 C-195.09043883 248.80622287 -195.09332936 240.91046193 -195.09805214 233.0146929 C-195.1036894 223.37930018 -195.10208511 213.74394 -195.09149066 204.10855096 C-195.08627216 199.2024769 -195.08411113 194.29645689 -195.09078896 189.39038336 C-195.16272153 131.55409134 -187.37232979 82.56659299 -145.54030526 39.94798338 C-105.52803304 1.78876665 -51.9072819 -0.04513607 0 0 Z " fill="#3F8762" transform="translate(331.82546150684357,60.723891615867615)"/>
<path d="M0 0 C0.73971645 -0.00367669 1.47943289 -0.00735338 2.24156499 -0.01114148 C4.70989897 -0.02211718 7.17819075 -0.02601181 9.64654541 -0.02983093 C11.42115918 -0.03610054 13.19577164 -0.04274778 14.97038269 -0.04974365 C20.79244074 -0.07073927 26.61449889 -0.08114654 32.43658447 -0.09111023 C34.44768538 -0.09516042 36.45878615 -0.09927742 38.46988678 -0.10346031 C47.92697482 -0.1225075 57.38405511 -0.13673568 66.84115863 -0.14507228 C77.71982809 -0.15482257 88.59829288 -0.18108623 99.47689033 -0.22157317 C107.90779778 -0.25186149 116.33864703 -0.26655342 124.76960778 -0.26985329 C129.79369977 -0.27219062 134.81757304 -0.28097683 139.84160614 -0.30631447 C144.5793651 -0.3298217 149.31676488 -0.33373876 154.05456734 -0.32355309 C155.77891049 -0.32306296 157.50327271 -0.32922591 159.22756004 -0.34310913 C179.87773999 -0.49986157 199.79284107 2.99309524 215.25299072 17.7558136 C226.53787263 29.07691388 235.52465038 43.14898939 235.59938049 59.62077332 C235.61011345 61.25194847 235.61011345 61.25194847 235.62106323 62.91607666 C235.62375214 64.09948135 235.62644104 65.28288605 235.62921143 66.50215149 C235.63578262 67.75650497 235.64235382 69.01085846 235.64912415 70.30322266 C235.66884192 74.45693707 235.68052657 78.61061287 235.69049072 82.76435852 C235.69454178 84.20067997 235.6986588 85.63700123 235.70284081 87.0733223 C235.72188563 93.82922443 235.73611336 100.58511574 235.74445277 107.34103954 C235.75419714 115.10459829 235.7804458 122.8678698 235.82095367 130.63132751 C235.85127846 136.65284663 235.86593736 142.67428425 235.86923379 148.69587815 C235.87156735 152.28184226 235.88030225 155.86749935 235.90569496 159.45338058 C236.05920563 182.32575431 235.33947738 201.45125722 218.71392822 218.87373352 C217.96756104 219.6239679 217.22119385 220.37420227 216.45220947 221.14717102 C215.86052979 221.7736554 215.2688501 222.40013977 214.65924072 223.04560852 C210.5278084 227.07671908 205.8525696 229.76295786 200.76470947 232.39717102 C200.14201172 232.72668762 199.51931396 233.05620422 198.87774658 233.39570618 C186.05117868 239.71604399 173.074158 239.49231378 159.12119102 239.28277397 C155.7088747 239.23609058 152.29738893 239.21650551 148.88478088 239.20516968 C139.19118811 239.17236765 129.49860665 239.12519793 119.80596924 238.97944641 C113.85117793 238.89187029 107.89854932 238.86385752 101.94315529 238.87327766 C99.69262761 238.86585903 97.44205229 238.83693905 95.19211388 238.7849102 C80.21142329 238.44945806 70.99371161 240.25317036 59.94287205 250.74355888 C57.99086611 252.58157325 55.90096764 254.21348736 53.77642822 255.84638977 C52.56149379 256.83919483 51.34913089 257.83515743 50.13970947 258.83467102 C49.14910522 259.6465387 49.14910522 259.6465387 48.13848877 260.47480774 C46.83411561 261.54414298 45.53075406 262.61471378 44.22857666 263.6867218 C40.8900213 266.43153188 37.5315198 269.15202471 34.17095947 271.86982727 C32.11866358 273.58891995 30.14017777 275.33338867 28.17095947 277.14326477 C27.32150757 277.9067926 27.32150757 277.9067926 26.45489502 278.68574524 C25.3606715 279.67233245 24.28022646 280.67451179 23.21710205 281.6945343 C20.30864425 284.29088988 18.08238688 285.48816408 14.24517822 285.64326477 C10.45220947 285.14717102 10.45220947 285.14717102 8.73919678 283.86495972 C6.43459755 280.78892742 7.03285116 276.87628008 7.04595947 273.17451477 C7.03512329 272.29566116 7.02428711 271.41680756 7.01312256 270.51132202 C6.96717323 266.74863566 6.95574687 262.98601573 6.940979 259.22309875 C6.92533447 256.4774839 6.89234738 253.73245502 6.85845947 250.98701477 C6.86148071 250.13179733 6.86450195 249.2765799 6.86761475 248.39544678 C6.86844672 245.75100681 6.86844672 245.75100681 6.45220947 242.14717102 C2.7439637 239.67500717 0.69251924 239.88581668 -3.73529053 239.77217102 C-22.63883388 238.91419609 -38.54144379 232.3884644 -51.92669678 218.71748352 C-63.29839133 205.74874896 -67.85770344 191.24048611 -67.82244873 174.22041321 C-67.82755966 172.94129562 -67.83267059 171.66217804 -67.8379364 170.34429932 C-67.85126002 166.85437979 -67.85191229 163.364569 -67.8493731 159.87462902 C-67.8482984 156.95011863 -67.85319971 154.02562979 -67.85797852 151.10112405 C-67.86905178 144.19376763 -67.86952409 137.2864656 -67.86346436 130.37910461 C-67.85743233 123.28090572 -67.86972088 116.18290543 -67.89103442 109.0847404 C-67.90872009 102.96723196 -67.91464068 96.84978633 -67.91139668 90.73225331 C-67.90959399 87.08893634 -67.91211711 83.4457609 -67.92611122 79.80246735 C-67.94116235 75.73201872 -67.93165896 71.66196709 -67.92010498 67.59150696 C-67.92774872 66.4035704 -67.93539246 65.21563385 -67.94326782 63.99169922 C-67.83077055 45.96443499 -61.33224177 31.79704909 -48.54779053 19.14717102 C-47.66220459 18.21131165 -47.66220459 18.21131165 -46.75872803 17.25654602 C-34.79301379 5.55439378 -16.36674138 -0.00442249 0 0 Z " fill="#FDFDFD" transform="translate(544.5477905273438,350.8528289794922)"/>
<path d="M0 0 C1.0174387 -0.00382555 2.03487741 -0.00765109 3.08314759 -0.01159257 C6.47297071 -0.02186428 9.8626226 -0.01794151 13.25245667 -0.01396179 C15.69073136 -0.01831145 18.12900469 -0.02349545 20.567276 -0.02944946 C26.491028 -0.04143508 32.41473793 -0.0439943 38.33849745 -0.0416492 C43.15561254 -0.03986237 47.9727139 -0.04162348 52.78982735 -0.04587364 C53.47678566 -0.04646883 54.16374397 -0.04706402 54.8715192 -0.04767724 C56.26730108 -0.04888906 57.66308296 -0.05010319 59.05886484 -0.05131962 C72.13228366 -0.0621823 85.20567665 -0.06003857 98.27909691 -0.05393478 C110.22517579 -0.04876548 122.17117314 -0.06002364 134.11723589 -0.07903299 C146.40081161 -0.09842873 158.68434879 -0.10666443 170.96793991 -0.10290974 C177.85732048 -0.10100049 184.74663164 -0.10345837 191.63599968 -0.11762428 C198.1145741 -0.13081143 204.59302623 -0.12825454 211.07160187 -0.11521339 C213.44593168 -0.11284905 215.82027299 -0.11557716 218.19458961 -0.12383652 C221.44225215 -0.13431728 224.6893685 -0.12619219 227.93701172 -0.11352539 C229.33737967 -0.12458682 229.33737967 -0.12458682 230.76603788 -0.13587171 C254.49066219 0.058035 269.8023135 21.36174038 285.32496643 36.85054016 C286.20739832 37.73014467 287.08983021 38.60974918 287.99900246 39.51600838 C292.18451973 43.68815586 296.36831421 47.86201524 300.5491001 52.03890413 C305.33033635 56.81565477 310.11806108 61.5857743 314.91148776 66.35029119 C319.10305101 70.51747054 323.28618845 74.69304085 327.4664402 78.87156868 C329.22881743 80.63094063 330.99366968 82.38783727 332.76114464 84.14208794 C359.07892004 110.2768061 359.07892004 110.2768061 359.77250671 119.43714905 C359.76806549 120.68957397 359.76362427 121.9419989 359.75904846 123.2323761 C359.75934052 123.92546371 359.75963257 124.61855133 359.75993347 125.3326416 C359.75854376 127.61608033 359.74299974 129.89918991 359.72731018 132.18257141 C359.72357877 133.7686902 359.7207324 135.3548113 359.71873474 136.94093323 C359.71110836 141.11010634 359.69146846 145.27913952 359.66932678 149.44825745 C359.6488469 153.70472826 359.63972844 157.96122175 359.62965393 162.21772766 C359.60822157 170.5654552 359.57304758 178.91304226 359.53199768 187.26069641 C350.95199768 187.26069641 342.37199768 187.26069641 333.53199768 187.26069641 C333.53199768 169.11069641 333.53199768 150.96069641 333.53199768 132.26069641 C325.58492737 132.33030579 325.58492737 132.33030579 317.47731018 132.40132141 C314.10489454 132.4217788 310.73255627 132.44103584 307.36012268 132.45600891 C302.01653497 132.47984671 296.67322349 132.50793376 291.32984924 132.56245422 C287.01800907 132.60617024 282.70646545 132.62988744 278.39442062 132.64020538 C276.75589714 132.64755084 275.11738842 132.66189401 273.47899246 132.68361664 C260.40434199 132.84994676 251.03178801 131.12883666 240.79762268 122.47163391 C234.43595905 116.26352768 230.87061451 109.50805421 230.29148865 100.53366089 C230.28577877 99.18559728 230.29080682 97.83745772 230.3049469 96.48945618 C230.30465485 95.74716263 230.30436279 95.00486908 230.30406189 94.24008179 C230.30544426 91.81063237 230.32095329 89.38149785 230.33668518 86.95210266 C230.34041921 85.25817024 230.34326434 83.56423565 230.34526062 81.87030029 C230.3528664 77.42991587 230.3724884 72.98966401 230.39466858 68.54933167 C230.41519308 64.01108086 230.42427642 59.47280846 230.43434143 54.93452454 C230.45573738 46.04319052 230.48983613 37.15195452 230.53199768 28.26069641 C200.47570935 28.2970038 170.4195115 28.35364777 140.36332226 28.43861736 C136.81359078 28.44863462 133.26385884 28.45847879 129.71412659 28.46821594 C129.00744937 28.47015732 128.30077215 28.47209869 127.57268047 28.47409889 C116.13557112 28.50510611 104.69848182 28.52209597 93.26133835 28.53389063 C81.52267373 28.54630883 69.78411425 28.57382528 58.04551601 28.61530948 C51.45339872 28.63795234 44.86143148 28.65360538 38.26927185 28.65258026 C32.06404232 28.65183534 25.85914486 28.66971932 19.65400124 28.70186424 C17.37722093 28.71038008 15.10040346 28.7121018 12.82361412 28.7064991 C9.71251143 28.69986334 6.60246654 28.71777084 3.49147034 28.74171448 C2.59261832 28.73395406 1.69376631 28.72619364 0.76767635 28.71819806 C-5.97099676 28.8098703 -10.95034444 30.13281259 -16.05154461 34.66877431 C-21.50282386 41.43692598 -20.15420959 51.17156175 -20.09619141 59.3732605 C-20.10123817 61.24371758 -20.10846799 63.11416982 -20.11768955 64.98461097 C-20.13662006 70.11809756 -20.12437341 75.25110782 -20.10696661 80.3845824 C-20.09360012 85.923167 -20.10902711 91.46168157 -20.12078857 97.0002594 C-20.13917445 107.84751347 -20.1306466 118.6945875 -20.11270035 129.54183597 C-20.09867949 138.35643485 -20.09478045 147.17098483 -20.09814262 155.9855938 C-20.09862007 157.23972746 -20.09909751 158.49386112 -20.09958942 159.78599883 C-20.10061574 162.33366745 -20.1016711 164.88133606 -20.10275518 167.42900466 C-20.11158299 190.64089743 -20.09292435 213.85268699 -20.06222495 237.06455083 C-20.03436126 258.25293233 -20.02940248 279.44119907 -20.04441833 300.6295929 C-20.04824079 306.05595423 -20.0520356 311.48231558 -20.05558872 316.9086771 C-20.05602654 317.5767334 -20.05646435 318.2447897 -20.05691543 318.93309014 C-20.06815526 336.64056688 -20.06073357 354.34803639 -20.04770797 372.05551094 C-20.04586356 374.59354555 -20.04402884 377.13158017 -20.0422039 379.66961479 C-20.04129181 380.91841186 -20.04037972 382.16720892 -20.03943999 383.45384832 C-20.03383083 392.25969409 -20.0371453 401.06551085 -20.04374886 409.87135506 C-20.05147487 420.60002206 -20.04475565 431.32856566 -20.01957382 442.05720777 C-20.00706229 447.53248765 -20.00095241 453.00757524 -20.01211548 458.48286247 C-20.02213821 463.49338154 -20.01374005 468.50351671 -19.9905343 473.51398896 C-19.98536463 475.3281224 -19.98695547 477.14229008 -19.99592895 478.95640869 C-20.0071047 481.4204129 -19.99370931 483.8831147 -19.97416019 486.34703922 C-19.98323901 487.05313183 -19.99231783 487.75922444 -20.00167176 488.4867138 C-19.91796297 493.89069839 -18.45053164 496.90541963 -15.46800232 501.26069641 C-10.62703969 505.01491233 -7.08478883 506.38446129 -1.0271492 506.39212418 C0.67871562 506.39788589 0.67871562 506.39788589 2.41904235 506.40376401 C3.67397813 506.40289753 4.92891391 506.40203104 6.22187805 506.40113831 C7.56416416 506.40372143 8.90644949 506.40673444 10.24873376 506.41014171 C13.94535834 506.41822121 17.64196351 506.42000181 21.33859587 506.42073917 C25.32235963 506.42258809 29.30611328 506.43013462 33.28987122 506.43687439 C42.00476028 506.45046515 50.71964475 506.45648363 59.43454266 506.46088505 C64.87482743 506.46364631 70.31511042 506.46788346 75.75539398 506.47238922 C90.81395227 506.48458304 105.87250912 506.49488201 120.93107224 506.49826431 C122.37718469 506.49859366 122.37718469 506.49859366 123.85251154 506.49892966 C125.30211233 506.49925708 125.30211233 506.49925708 126.78099799 506.49959111 C128.73933903 506.50003458 130.69768008 506.50048114 132.65602112 506.50093079 C134.11313273 506.50126293 134.11313273 506.50126293 135.59968093 506.50160179 C151.34077456 506.50554998 167.0818219 506.52300416 182.82289764 506.54629031 C198.97881556 506.56999748 215.13471024 506.58246588 231.29064584 506.58363223 C240.3636936 506.58454937 249.43668106 506.59031138 258.50971222 506.60845184 C266.23562351 506.62384429 273.96145586 506.62897838 281.68737957 506.62071374 C285.62949582 506.61680414 289.57145307 506.61775184 293.5135498 506.63177109 C297.12344777 506.64449156 300.73306696 506.64332898 304.34296444 506.63118038 C306.26531385 506.62829254 308.18766799 506.64017325 310.10997939 506.65260243 C317.55147046 506.60987405 322.90372272 506.20254097 328.84449768 501.38569641 C331.96693212 497.45374193 332.78021892 493.6887629 332.94606018 488.74116516 C332.98167053 487.81972717 333.01728088 486.89828918 333.05397034 485.94892883 C333.10496887 484.21606628 333.10496887 484.21606628 333.15699768 482.44819641 C333.28074768 478.75632141 333.40449768 475.06444641 333.53199768 471.26069641 C342.11199768 471.26069641 350.69199768 471.26069641 359.53199768 471.26069641 C359.60147557 475.20806981 359.6610175 479.1538537 359.6967926 483.10151672 C359.71901247 485.09222546 359.75716363 487.08273609 359.79566956 489.07319641 C359.89169385 501.74840321 357.51106025 511.22300565 349.53199768 521.26069641 C340.82677354 529.98075057 330.09847669 535.37297783 317.71845913 535.39491749 C316.54896676 535.39937533 315.37947438 535.40383318 314.17454284 535.40842611 C312.89382481 535.40824174 311.61310677 535.40805738 310.2935791 535.40786743 C308.91600696 535.41116831 307.53843579 535.41489435 306.16086584 535.41900891 C302.37580125 535.42901159 298.59075251 535.43274291 294.80567658 535.43539822 C290.72300872 535.43930641 286.64035335 535.44888439 282.55769348 535.45761108 C272.69830949 535.47736084 262.83892448 535.48743977 252.97952566 535.49633887 C248.33431691 535.50072417 243.68910929 535.50609035 239.04390144 535.51132774 C223.59838949 535.52833846 208.15287824 535.54283213 192.70735836 535.55007648 C188.70041846 535.55198632 184.69347857 535.55390666 180.6865387 535.55586243 C179.19271762 535.55658804 179.19271762 535.55658804 177.66871835 535.55732831 C161.5398907 535.56562676 145.41113726 535.59096128 129.28234201 535.6234431 C112.71614249 535.65653331 96.14998066 535.67452702 79.58374792 535.67772073 C70.28530719 535.67988399 60.98697469 535.68860581 51.68856621 535.7141819 C43.76886417 535.73591569 35.84929665 535.74392615 27.92956816 535.73421512 C23.89158527 535.72967818 19.85387977 535.73152107 15.81593513 535.75097656 C12.11265273 535.76866485 8.40984892 535.76756524 4.70656104 535.75207927 C2.74623773 535.74859799 0.78590907 535.76468711 -1.17434365 535.78168374 C-15.34963557 535.67927414 -26.30004479 531.14563258 -36.65550232 521.57319641 C-45.11871481 512.73834585 -48.7947454 502.19714399 -48.72527122 490.11022568 C-48.7287773 489.32624981 -48.73228337 488.54227395 -48.73589569 487.73454124 C-48.74517671 485.11564485 -48.74029493 482.49697245 -48.73542786 479.87806702 C-48.73916577 477.97818008 -48.74376786 476.07829469 -48.7491585 474.17841172 C-48.76138634 468.96351069 -48.76112828 463.74867383 -48.75876975 458.53376174 C-48.75836153 452.90716168 -48.76940121 447.28058218 -48.77888489 441.6539917 C-48.79549458 430.63266349 -48.80099442 419.61135667 -48.80210964 408.59001699 C-48.80306011 399.63102009 -48.80717035 390.67203025 -48.81351089 381.71303558 C-48.82825751 360.44355117 -48.84056064 339.17407267 -48.83951378 317.90458298 C-48.83948262 317.22461515 -48.83945146 316.54464732 -48.83941936 315.8440744 C-48.83925315 312.39784734 -48.83905507 308.95162029 -48.83884995 305.50539324 C-48.83881006 304.82098114 -48.83877017 304.13656904 -48.83872907 303.43141718 C-48.83864819 302.04736946 -48.8385646 300.66332175 -48.83847828 299.27927404 C-48.83725293 277.74847766 -48.85226419 256.21774429 -48.87962341 234.68696594 C-48.9103612 210.48749655 -48.92752956 186.28808178 -48.92569697 162.088588 C-48.92503303 149.27911469 -48.93052734 136.46971245 -48.95205307 123.66025543 C-48.97026274 112.75424994 -48.97461388 101.84834772 -48.96103422 90.94233361 C-48.95450363 85.37933708 -48.95439093 79.81653871 -48.97174072 74.25356102 C-48.98747201 69.15706628 -48.98460698 64.06092681 -48.96717246 58.96444073 C-48.96410273 57.12463845 -48.9677339 55.28480965 -48.97889261 53.44503865 C-49.07189398 37.01851605 -46.23914593 24.46915238 -34.78050232 12.07319641 C-24.74447293 2.47767977 -13.44224589 -0.05428734 0 0 Z " fill="#FEFEFE" transform="translate(316.46800231933594,142.7393035888672)"/>
<path d="M0 0 C1.06347656 0.00515625 2.12695312 0.0103125 3.22265625 0.015625 C4.28355469 0.01046875 5.34445312 0.0053125 6.4375 0 C9.28515625 0.265625 9.28515625 0.265625 12.28515625 2.265625 C12.62573242 4.60400391 12.62573242 4.60400391 12.578125 7.4921875 C12.56845703 8.5234375 12.55878906 9.5546875 12.54882812 10.6171875 C12.52369141 11.69742187 12.49855469 12.77765625 12.47265625 13.890625 C12.45235352 15.52257812 12.45235352 15.52257812 12.43164062 17.1875 C12.39620379 19.88069909 12.34679956 22.57291874 12.28515625 25.265625 C13.1141468 25.25563225 13.1141468 25.25563225 13.95988464 25.24543762 C19.71872126 25.17900017 25.47744877 25.13378958 31.23657227 25.10083008 C33.38505476 25.08575585 35.53350655 25.06529311 37.68188477 25.03930664 C40.77237533 25.00286386 43.86245856 24.98588481 46.953125 24.97265625 C47.91163864 24.95717239 48.87015228 24.94168854 49.85771179 24.92573547 C58.44425575 24.92357497 58.44425575 24.92357497 62.28515625 28.265625 C62.84375 30.859375 62.84375 30.859375 62.72265625 33.765625 C62.68978516 35.20421875 62.68978516 35.20421875 62.65625 36.671875 C62.28515625 39.265625 62.28515625 39.265625 60.28515625 42.265625 C57.34918086 42.64947009 54.60488252 42.869468 51.66015625 42.953125 C50.85835937 42.98728516 50.0565625 43.02144531 49.23046875 43.05664062 C47.24919307 43.13919378 45.26719588 43.20408416 43.28515625 43.265625 C42.94484375 44.1628125 42.60453125 45.06 42.25390625 45.984375 C37.01626226 59.56911139 31.32079301 72.39538821 22.16796875 83.8125 C20.54857644 85.92241364 19.35930904 87.84595451 18.28515625 90.265625 C30.94903417 100.35379894 45.24390659 106.5603234 60.28515625 112.265625 C60.17213898 116.88905877 59.96006153 121.00005777 57.16015625 124.828125 C54.28515625 127.265625 54.28515625 127.265625 51.1328125 127.62890625 C46.49399356 127.19092639 43.0388156 125.83941563 38.84765625 123.890625 C38.06849854 123.53556885 37.28934082 123.1805127 36.48657227 122.81469727 C24.91558763 117.38929783 14.07875041 110.48136233 4.28515625 102.265625 C3.25390625 103.07 2.22265625 103.874375 1.16015625 104.703125 C-7.98602813 111.51886799 -17.63769105 117.39190456 -27.65234375 122.828125 C-28.44487549 123.26995117 -29.23740723 123.71177734 -30.05395508 124.16699219 C-34.74512723 126.65640787 -38.26925275 128.05236239 -43.71484375 127.265625 C-47.51378057 123.55110899 -50.59427614 119.91811235 -50.83984375 114.515625 C-50.79859375 113.773125 -50.75734375 113.030625 -50.71484375 112.265625 C-49.58046875 111.770625 -48.44609375 111.275625 -47.27734375 110.765625 C-46.4575 110.39695312 -45.63765625 110.02828125 -44.79296875 109.6484375 C-43.14713035 108.9090634 -41.50010115 108.17216597 -39.84570312 107.45214844 C-31.65816881 103.88048492 -23.94015759 100.09498927 -16.65234375 94.890625 C-16.05075439 94.46185059 -15.44916504 94.03307617 -14.8293457 93.59130859 C-13.41315909 92.54043399 -12.05678837 91.40978697 -10.71484375 90.265625 C-10.71484375 87.51812659 -12.12899098 86.37958871 -13.81347656 84.33227539 C-22.3055946 73.99895963 -35.71484375 55.10054451 -35.71484375 41.265625 C-36.99101563 41.28882813 -38.2671875 41.31203125 -39.58203125 41.3359375 C-41.25129625 41.35469329 -42.92056755 41.37289369 -44.58984375 41.390625 C-45.85248047 41.41576172 -45.85248047 41.41576172 -47.140625 41.44140625 C-47.94628906 41.44785156 -48.75195312 41.45429688 -49.58203125 41.4609375 C-50.32565918 41.47141113 -51.06928711 41.48188477 -51.83544922 41.49267578 C-53.71484375 41.265625 -53.71484375 41.265625 -55.71484375 39.265625 C-55.98046875 36.515625 -55.98046875 36.515625 -55.96484375 33.265625 C-55.97 32.193125 -55.97515625 31.120625 -55.98046875 30.015625 C-55.71484375 27.265625 -55.71484375 27.265625 -53.71484375 25.265625 C-51.65206909 25.02511597 -51.65206909 25.02511597 -49.08154297 25.03857422 C-48.12069794 25.03872528 -47.15985291 25.03887634 -46.16989136 25.03903198 C-45.13027252 25.04935455 -44.09065369 25.05967712 -43.01953125 25.0703125 C-41.95695099 25.0731424 -40.89437073 25.07597229 -39.79959106 25.07888794 C-36.39622876 25.09010861 -32.99312689 25.11521663 -29.58984375 25.140625 C-27.28646213 25.15065236 -24.98307639 25.15977863 -22.6796875 25.16796875 C-17.0246503 25.19005407 -11.36976562 25.22355011 -5.71484375 25.265625 C-5.71919434 24.3159082 -5.72354492 23.36619141 -5.72802734 22.38769531 C-5.73141113 21.13569336 -5.73479492 19.88369141 -5.73828125 18.59375 C-5.74263184 17.3552832 -5.74698242 16.11681641 -5.75146484 14.84082031 C-5.60506621 0.54840936 -5.60506621 0.54840936 0 0 Z " fill="#3A825E" transform="translate(683.71484375,406.734375)"/>
<path d="M0 0 C0.72445312 -0.01611328 1.44890625 -0.03222656 2.1953125 -0.04882812 C7.47351402 -0.05369731 7.47351402 -0.05369731 9.55810547 1.39624023 C11.61415849 4.12870894 12.63405069 7.14247684 13.7578125 10.3359375 C14.14804344 11.41079659 14.14804344 11.41079659 14.54615784 12.50737 C15.11347508 14.07223698 15.67706436 15.63845926 16.23739624 17.20584106 C17.77479859 21.50427743 19.34080251 25.79231869 20.90234375 30.08203125 C21.23178482 30.98938522 21.56122589 31.8967392 21.90065002 32.83158875 C25.38655527 42.41635041 28.98382458 51.95824625 32.59689331 61.4956665 C33.68413973 64.36612847 34.7691636 67.23742244 35.85375977 70.10888672 C39.04880348 78.56150891 42.26049853 87.00693471 45.5234375 95.43359375 C46.29678233 97.43927906 47.06957961 99.44517442 47.8421936 101.45114136 C48.5397886 103.253811 49.24667026 105.05287836 49.95385742 106.85180664 C50.36224854 107.91133545 50.77063965 108.97086426 51.19140625 110.0625 C51.54404541 110.96484375 51.89668457 111.8671875 52.26000977 112.796875 C53.04830267 115.47670678 53.29860728 117.53628342 53 120.3125 C49.48117015 123.27401978 46.45210972 123.74429253 41.9375 123.75 C40.40416016 123.77900391 40.40416016 123.77900391 38.83984375 123.80859375 C35.23189614 123.17831954 34.34113747 122.08768651 32 119.3125 C30.71972656 116.56347656 30.71972656 116.56347656 29.640625 113.453125 C29.28516602 112.44797852 28.92970703 111.44283203 28.56347656 110.40722656 C28.1300293 109.1384668 27.69658203 107.86970703 27.25 106.5625 C25.8475 102.52 24.445 98.4775 23 94.3125 C7.16 93.9825 -8.68 93.6525 -25 93.3125 C-25.99 96.9425 -26.98 100.5725 -28 104.3125 C-28.94363744 107.35478709 -29.90660685 110.36435448 -30.9375 113.375 C-31.17662109 114.11943359 -31.41574219 114.86386719 -31.66210938 115.63085938 C-33.45172491 120.83916 -33.45172491 120.83916 -35.71484375 122.79296875 C-39.02150231 123.54473899 -42.25433588 123.60124327 -45.625 123.5625 C-46.6459375 123.57410156 -46.6459375 123.57410156 -47.6875 123.5859375 C-52.74655878 123.56594122 -52.74655878 123.56594122 -55 121.3125 C-54.65701803 116.15660362 -53.20471 111.59527967 -51.359375 106.8125 C-51.0849054 106.08390274 -50.81043579 105.35530548 -50.52764893 104.60462952 C-49.60878316 102.17119748 -48.67952667 99.74187778 -47.75 97.3125 C-47.09190723 95.57759758 -46.4343702 93.84248426 -45.77734375 92.10717773 C-44.32949422 88.28826335 -42.87648418 84.47136131 -41.41992188 80.65576172 C-39.26378344 75.00739433 -37.11664579 69.35564104 -34.9710083 63.70327759 C-32.65062206 57.59260178 -30.32536471 51.48378261 -28 45.375 C-27.55410522 44.20235596 -27.10821045 43.02971191 -26.64880371 41.8215332 C-23.79021219 34.30901042 -20.91210283 26.80445138 -18 19.3125 C-17.6488916 18.40715515 -17.2977832 17.5018103 -16.93603516 16.56903076 C-15.98980857 14.14406787 -15.0296504 11.72527456 -14.0625 9.30859375 C-13.79211914 8.61435806 -13.52173828 7.92012238 -13.24316406 7.20484924 C-10.43117372 0.29064747 -6.92847969 -0.03082064 0 0 Z " fill="#3B825E" transform="translate(571,409.6875)"/>
<path d="M0 0 C8.73511913 7.01130056 13.17740195 16.58571846 14.74609375 27.52734375 C15.84916774 41.94390804 13.84889337 55.07407752 4.22265625 66.3046875 C-2.29080136 72.54807492 -10.95104939 75.78452789 -19.87890625 76.08984375 C-30.03699889 75.63972468 -35.04994835 72.73130165 -42.25390625 65.52734375 C-42.58390625 77.73734375 -42.91390625 89.94734375 -43.25390625 102.52734375 C-48.86390625 102.52734375 -54.47390625 102.52734375 -60.25390625 102.52734375 C-60.25390625 67.54734375 -60.25390625 32.56734375 -60.25390625 -3.47265625 C-54.97390625 -3.47265625 -49.69390625 -3.47265625 -44.25390625 -3.47265625 C-43.92390625 -0.50265625 -43.59390625 2.46734375 -43.25390625 5.52734375 C-42.59390625 4.61984375 -41.93390625 3.71234375 -41.25390625 2.77734375 C-31.39294015 -9.07262404 -11.89652414 -7.77294558 0 0 Z " fill="#22513A" transform="translate(418.25390625,865.47265625)"/>
<path d="M0 0 C55.83098592 0 55.83098592 0 66.265625 8.94140625 C73.50423345 16.43470648 76.16472763 24.16941997 76.5 34.5 C76.22112963 43.64694809 74.15848898 51.79683486 67.66796875 58.51171875 C53.45112831 71.19700261 34.79037654 69.36871247 17 69 C17 81.21 17 93.42 17 106 C11.39 106 5.78 106 0 106 C0 71.02 0 36.04 0 0 Z " fill="#204F38" transform="translate(192,833)"/>
<path d="M0 0 C1.11486789 -0.00679667 1.11486789 -0.00679667 2.25225836 -0.01373065 C4.73794302 -0.02637146 7.22340849 -0.02475451 9.7091217 -0.02310181 C11.49320761 -0.02908718 13.27729093 -0.03589275 15.06137085 -0.04345703 C19.90431224 -0.0611214 24.74718296 -0.06581254 29.59015346 -0.0670886 C33.63347544 -0.06898837 37.67678099 -0.07634664 41.72009665 -0.08343279 C51.25876453 -0.09971533 60.79739465 -0.1046018 70.33607483 -0.10317993 C80.17626027 -0.1019779 90.01622659 -0.12309238 99.85635656 -0.15466726 C108.30574861 -0.18081354 116.75506901 -0.19154795 125.20450121 -0.19026911 C130.25056796 -0.18975908 135.2964399 -0.19546547 140.34246635 -0.21662521 C145.087579 -0.2359803 149.8323104 -0.23615079 154.57743645 -0.22159195 C156.31810055 -0.21949949 158.05878835 -0.22423073 159.79941177 -0.23631287 C162.17751406 -0.25174991 164.55429913 -0.24246866 166.93237305 -0.22705078 C167.61963799 -0.23733791 168.30690293 -0.24762503 169.01499408 -0.25822389 C173.93810568 -0.18778535 176.71471888 1.23067409 180.52967834 4.26742554 C182.90897504 7.29562133 182.8924328 10.51511933 182.77967834 14.30648804 C182.40330385 17.2586755 181.41769529 18.9887844 179.52967834 21.26742554 C175.45230153 24.3339755 171.96938793 24.69799317 167.02139282 24.65510559 C166.27406401 24.66049113 165.5267352 24.66587667 164.75676006 24.6714254 C162.25715102 24.6857121 159.75807102 24.67859968 157.25843811 24.67147827 C155.46449864 24.67718148 153.6705628 24.68414554 151.87663269 24.692276 C147.00679423 24.71022802 142.13713576 24.70903518 137.26727414 24.70333362 C133.20157857 24.70024472 129.13591772 24.70633089 125.07022709 24.71237236 C115.47880064 24.72642269 105.88746326 24.72485206 96.29603577 24.71347046 C86.40130804 24.7019884 76.50685132 24.71606526 66.61215931 24.74286693 C58.11604959 24.76501857 49.62002498 24.77166253 41.12388843 24.76579052 C36.04988837 24.7624185 30.97606204 24.76485233 25.90208626 24.78204155 C21.13069219 24.79750004 16.35969982 24.79356731 11.58832169 24.7747364 C9.83798869 24.77104749 8.08762599 24.7741678 6.33732033 24.78462219 C3.94606581 24.7978136 1.5561448 24.78630228 -0.83505249 24.76863098 C-1.87178633 24.78303849 -1.87178633 24.78303849 -2.92946428 24.79773706 C-7.86281114 24.72282528 -10.64735865 23.3126994 -14.47032166 20.26742554 C-16.81778705 17.27974231 -16.89165705 14.04814364 -16.78672791 10.29867554 C-16.25286472 6.87140572 -14.72698142 4.82903933 -12.47032166 2.26742554 C-8.37889824 0.11174488 -4.52683499 -0.02033447 0 0 Z " fill="#FEFEFE" transform="translate(351.47032165527344,303.7325744628906)"/>
<path d="M0 0 C4.93405728 4.00517605 8.42838327 9.04631919 9.6875 15.3125 C9.77376242 17.2370462 9.80521338 19.16434639 9.80102539 21.09082031 C9.80091209 22.83217255 9.80091209 22.83217255 9.80079651 24.60870361 C9.79563522 25.85673767 9.79047394 27.10477173 9.78515625 28.390625 C9.7837413 29.67233582 9.78232635 30.95404663 9.78086853 32.27459717 C9.77705901 35.6743364 9.76724214 39.0740326 9.75616455 42.47375488 C9.74591674 45.946039 9.7413637 49.4183301 9.73632812 52.890625 C9.72561841 59.69793608 9.70803433 66.50521154 9.6875 73.3125 C4.4075 73.3125 -0.8725 73.3125 -6.3125 73.3125 C-6.8075 69.8475 -6.8075 69.8475 -7.3125 66.3125 C-8.075625 67.055 -8.83875 67.7975 -9.625 68.5625 C-16.72727801 74.38703173 -25.16084414 76.02940746 -34.16796875 75.6875 C-41.24449 74.84359188 -46.42311143 72.68906551 -51.3125 67.4375 C-56.63756481 60.59635792 -57.18364138 53.80054421 -56.3125 45.3125 C-54.85129028 39.76360234 -51.66297194 35.83796136 -46.95703125 32.625 C-35.51660218 26.94703225 -19.91371708 25.08269057 -7.3125 25.3125 C-7.56446976 18.53512808 -7.56446976 18.53512808 -10 12.3125 C-14.2359373 8.64898666 -18.72766743 7.82278802 -24.2890625 8.00390625 C-27.81150138 8.54111218 -30.79497212 9.76947817 -33.3125 12.3125 C-34.3025 14.6225 -35.2925 16.9325 -36.3125 19.3125 C-41.9225 19.3125 -47.5325 19.3125 -53.3125 19.3125 C-52.82161439 11.21288741 -51.08563395 6.70463742 -45 1.125 C-32.93739542 -8.74205557 -12.68412549 -8.65255401 0 0 Z " fill="#204F38" transform="translate(331.3125,865.6875)"/>
<path d="M0 0 C4.68216105 3.75558602 7.92176628 7.78640505 9.85546875 13.48828125 C10.09597778 16.36738586 10.09597778 16.36738586 10.08251953 19.5637207 C10.08236847 20.76458817 10.08221741 21.96545563 10.08206177 23.20271301 C10.0717392 24.48933334 10.06141663 25.77595367 10.05078125 27.1015625 C10.04704787 28.43962899 10.04420243 29.77769822 10.04220581 31.11576843 C10.03459491 34.62569824 10.01496857 38.1354607 9.99279785 41.64532471 C9.97228439 45.23162574 9.96319237 48.81795399 9.953125 52.40429688 C9.93172002 59.43236705 9.89655882 66.46029887 9.85546875 73.48828125 C4.57546875 73.48828125 -0.70453125 73.48828125 -6.14453125 73.48828125 C-6.63953125 70.02328125 -6.63953125 70.02328125 -7.14453125 66.48828125 C-7.90765625 67.23078125 -8.67078125 67.97328125 -9.45703125 68.73828125 C-16.27078741 74.33928455 -24.54453982 76.21566109 -33.22265625 75.8671875 C-40.66752954 74.9017427 -46.68107103 72.06269244 -51.73828125 66.46875 C-55.41396454 61.29216269 -56.82960073 55.12230985 -56.54296875 48.81640625 C-55.43021411 42.31442816 -52.56064486 36.96668108 -47.14453125 33.11328125 C-35.2312116 26.81776952 -19.39344858 25.93362301 -6.14453125 25.48828125 C-6.9815539 17.92877015 -6.9815539 17.92877015 -10.51953125 11.36328125 C-15.09033667 8.09842024 -19.58441107 7.88834535 -25.14453125 8.48828125 C-29.30448709 10.05807591 -31.90900224 11.60552034 -34.14453125 15.48828125 C-34.47453125 16.80828125 -34.80453125 18.12828125 -35.14453125 19.48828125 C-41.08453125 19.48828125 -47.02453125 19.48828125 -53.14453125 19.48828125 C-52.02898921 10.56394496 -50.37007835 5.84336035 -43.45703125 0.17578125 C-31.14329871 -8.23974918 -12.38593997 -8.38090549 0 0 Z " fill="#214F38" transform="translate(711.14453125,865.51171875)"/>
<path d="M0 0 C7.01495475 5.85443047 10.9988802 12.24942706 13.20703125 21.08203125 C13.20703125 27.02203125 13.20703125 32.96203125 13.20703125 39.08203125 C-4.61296875 39.08203125 -22.43296875 39.08203125 -40.79296875 39.08203125 C-39.18100169 49.74897245 -39.18100169 49.74897245 -32.79296875 57.08203125 C-29.11180191 59.58961508 -25.2237942 59.44913065 -20.91796875 59.45703125 C-19.87576172 59.49376953 -19.87576172 59.49376953 -18.8125 59.53125 C-13.629493 59.56053253 -10.71236074 58.4300833 -6.79296875 55.08203125 C-6.34308594 54.18097656 -5.89320313 53.27992188 -5.4296875 52.3515625 C-4.61951172 51.22814453 -4.61951172 51.22814453 -3.79296875 50.08203125 C-0.85203823 49.70343566 1.48348083 49.60427511 4.39453125 49.76953125 C5.14412109 49.79208984 5.89371094 49.81464844 6.66601562 49.83789062 C8.51387595 49.89673968 10.36070792 49.98642187 12.20703125 50.08203125 C11.20110678 56.84146766 9.03177288 62.1335783 4.20703125 67.08203125 C-5.71484868 74.18419397 -14.64282465 76.205744 -26.79296875 75.08203125 C-37.56473148 72.7840552 -46.65533842 67.37043323 -52.79296875 58.08203125 C-58.69285396 46.05606714 -59.8165235 32.15260243 -56.29296875 19.20703125 C-52.81416937 9.48828753 -47.36190866 2.00078639 -38.1484375 -2.8359375 C-26.0514669 -8.39292068 -11.07584794 -7.60593194 0 0 Z " fill="#214F39" transform="translate(501.79296875,865.91796875)"/>
<path d="M0 0 C5.61 0 11.22 0 17 0 C17.33 19.8 17.66 39.6 18 60 C31.81508222 46.29477615 31.81508222 46.29477615 45 32 C46 31 46 31 48.13305664 30.88647461 C49.04949951 30.89171143 49.96594238 30.89694824 50.91015625 30.90234375 C52.39418945 30.90717773 52.39418945 30.90717773 53.90820312 30.91210938 C54.94912109 30.92048828 55.99003906 30.92886719 57.0625 30.9375 C58.62967773 30.94426758 58.62967773 30.94426758 60.22851562 30.95117188 C62.8190666 30.96300087 65.40950559 30.97948311 68 31 C62.33425951 37.92810724 55.96966361 44.14204142 49.625 50.4375 C48.49586045 51.56161467 47.36695222 52.68596174 46.23828125 53.81054688 C43.49484812 56.54305235 40.74830015 59.27239009 38 62 C40.96217726 67.57382891 44.09826927 72.74432001 47.9375 77.75 C52.73841435 84.14953016 57.25151175 90.71791158 61.6875 97.375 C62.31197021 98.30924805 62.93644043 99.24349609 63.57983398 100.20605469 C68 106.87001946 68 106.87001946 68 108 C51.42686598 110.19527685 51.42686598 110.19527685 46.23242188 106.86767578 C43.14772655 103.73576573 41.13873299 99.94601723 39.12402344 96.07128906 C37.17623657 92.48201369 34.80818942 89.17629918 32.5 85.8125 C31.67418109 84.57093594 30.8510605 83.32757086 30.03125 82.08203125 C28.69279714 80.05118643 27.34916347 78.02374521 26 76 C23.75928906 77.00445663 22.12245015 77.87754985 20.375 79.625 C19.92125 80.07875 19.4675 80.5325 19 81 C18.34 81 17.68 81 17 81 C17 89.91 17 98.82 17 108 C11.39 108 5.78 108 0 108 C0 72.36 0 36.72 0 0 Z " fill="#22513B" transform="translate(773,831)"/>
<path d="M0 0 C0.91252533 -0.00708481 1.82505066 -0.01416962 2.76522827 -0.02146912 C4.25600639 -0.01775299 4.25600639 -0.01775299 5.77690125 -0.01396179 C7.35562012 -0.02162819 7.35562012 -0.02162819 8.9662323 -0.02944946 C12.44964772 -0.04336278 15.93286562 -0.0423871 19.41630554 -0.04008484 C21.83762689 -0.04397131 24.25894755 -0.04830588 26.68026733 -0.05307007 C31.7585623 -0.0605364 36.83678775 -0.06023835 41.91508484 -0.05497742 C48.41844989 -0.04918771 54.9215297 -0.06610001 61.4248476 -0.08932209 C66.4271816 -0.10406594 71.42944706 -0.10493013 76.43179893 -0.10181236 C78.82914481 -0.10232542 81.22649454 -0.10756028 83.62381935 -0.11762428 C86.97972157 -0.12998115 90.33507017 -0.12320056 93.69096375 -0.11161804 C94.67874313 -0.11926178 95.66652252 -0.12690552 96.68423462 -0.13478088 C102.35661245 -0.09157948 106.44847736 0.45524649 111.42802429 3.26069641 C114.53814889 7.9258833 114.1573482 12.80181747 113.42802429 18.26069641 C110.79474218 21.9911794 108.8219369 23.43785492 104.42802429 24.26069641 C102.91651016 24.35257664 101.40157656 24.3953997 99.88728333 24.40113831 C98.52894882 24.40970352 98.52894882 24.40970352 97.14317322 24.41844177 C96.15710083 24.41955963 95.17102844 24.42067749 94.15507507 24.42182922 C93.1107431 24.42679413 92.06641113 24.43175903 90.99043274 24.43687439 C87.5347274 24.45148283 84.07906794 24.45829538 80.62333679 24.46382141 C78.2220408 24.46957336 75.82074482 24.47533109 73.41944885 24.48109436 C68.38405646 24.49160019 63.34868001 24.49744579 58.3132782 24.50093079 C51.86139925 24.50641863 45.40973099 24.53045485 38.95791817 24.55890274 C33.9976693 24.57752521 29.03747127 24.58273449 24.0771904 24.58426666 C21.69854962 24.58729392 19.31990974 24.59532487 16.94130325 24.60845184 C13.61395969 24.62550586 10.28713211 24.62363356 6.95976257 24.61714172 C5.97773865 24.62635651 4.99571472 24.63557129 3.9839325 24.64506531 C-1.29003344 24.61283127 -5.02484671 24.24614125 -9.57197571 21.26069641 C-12.49844638 17.84648062 -13.10587183 14.75146051 -12.92744446 10.25679016 C-12.33074821 6.90611123 -10.75234481 4.80446037 -8.57197571 2.26069641 C-5.63681109 0.44446183 -3.42720172 0.00889429 0 0 Z " fill="#FDFEFE" transform="translate(347.5719757080078,240.7393035888672)"/>
<path d="M0 0 C0.94226944 -0.00365067 1.88453888 -0.00730133 2.85536194 -0.01106262 C5.96129548 -0.01914885 9.06670401 -0.00557068 12.17260742 0.0090332 C14.33965555 0.00955217 16.50670416 0.00903305 18.67375183 0.00752258 C23.21388791 0.00761223 27.75384615 0.0180239 32.29394531 0.03613281 C38.09751535 0.05877881 43.90082474 0.05937049 49.70442677 0.05261517 C54.18013298 0.04926366 58.65578041 0.0559282 63.13147545 0.0657444 C65.27037943 0.06957937 67.40928997 0.07075172 69.54819679 0.06915855 C72.54657932 0.06878525 75.54463553 0.08148332 78.54296875 0.09765625 C79.85485168 0.09394012 79.85485168 0.09394012 81.1932373 0.09014893 C87.69883455 0.14579491 94.69025547 0.27390124 100.02807617 4.30981445 C102.21794941 8.97519657 102.20355908 13.31294713 101.46557617 18.37231445 C99.55987899 22.10748093 98.33881286 23.05608158 94.41722107 24.47624207 C89.89468033 25.67790062 85.45599322 25.6600958 80.80175781 25.64697266 C79.85773605 25.65208359 78.91371429 25.65719452 77.94108582 25.66246033 C74.83590264 25.67630403 71.7309427 25.67540358 68.62573242 25.6730957 C66.45771706 25.67698528 64.28970246 25.68132049 62.12168884 25.68608093 C57.58337938 25.69353176 53.04514773 25.69325993 48.50683594 25.68798828 C42.70202739 25.68219293 36.89753784 25.69913198 31.09278202 25.72233295 C26.6171229 25.73709065 22.14154027 25.73793925 17.66586113 25.73482323 C15.52612107 25.73533534 13.3863766 25.7405523 11.24666023 25.75063515 C8.25049437 25.76302259 5.25494564 25.756194 2.25878906 25.74462891 C1.38217621 25.75227264 0.50556335 25.75991638 -0.39761353 25.76779175 C-6.08861052 25.71943322 -10.37310068 24.84042244 -15.53442383 22.37231445 C-18.39010288 17.73183599 -19.13405872 13.76902846 -18.53442383 8.37231445 C-17.17364738 5.04597202 -16.03849391 3.69566549 -13.01313782 1.75495911 C-8.53434228 -0.02517652 -4.77251888 -0.04142328 0 0 Z " fill="#FAFBFA" transform="translate(353.534423828125,366.627685546875)"/>
<path d="M0 0 C27.06 0 54.12 0 82 0 C82 4.95 82 9.9 82 15 C71.44 15 60.88 15 50 15 C50 45.03 50 75.06 50 106 C44.39 106 38.78 106 33 106 C33 75.97 33 45.94 33 15 C22.11 15 11.22 15 0 15 C0 10.05 0 5.1 0 0 Z " fill="#1F4E37" transform="translate(581,833)"/>
<path d="M0 0 C0.22084624 6.09781001 0.01167675 11.21642935 -2 17 C-2.845625 16.88140625 -3.69125 16.7628125 -4.5625 16.640625 C-10.78536644 15.93348109 -15.6727801 15.490167 -21.31640625 18.40625 C-25.66145648 22.5194298 -27.22844109 26.62568277 -27.54589844 32.47631836 C-27.58687808 34.59720315 -27.60696051 36.71856447 -27.609375 38.83984375 C-27.62591125 39.96193741 -27.64244751 41.08403107 -27.65948486 42.24012756 C-27.70787028 45.8059746 -27.72931578 49.37139539 -27.75 52.9375 C-27.77816744 55.36265154 -27.80809594 57.78778331 -27.83984375 60.21289062 C-27.91362738 66.141892 -27.96326031 72.07065805 -28 78 C-33.61 78 -39.22 78 -45 78 C-45 52.59 -45 27.18 -45 1 C-39.72 1 -34.44 1 -29 1 C-28.67 3.97 -28.34 6.94 -28 10 C-27.57589844 9.45730469 -27.15179687 8.91460938 -26.71484375 8.35546875 C-19.32582886 -0.65750546 -11.22165404 -2.89591072 0 0 Z " fill="#204E37" transform="translate(575,861)"/>
<path d="M0 0 C6.20864358 4.51537715 11.33971283 10.29378794 12.75 18 C13.56372006 26.50337462 13.46869646 34.62621528 8.75 42 C3.90038493 47.4368336 -0.69369452 50.64436945 -8 51.375 C-13.54207254 51.20737588 -18.65269976 49.24426914 -22.859375 45.609375 C-29.21583615 38.50509489 -28.90882877 29.76398163 -28.69921875 20.80078125 C-28.22851595 13.25320288 -25.3884964 6.80761616 -19.73046875 1.74609375 C-14.02585299 -2.2695964 -6.49173588 -1.99745719 0 0 Z " fill="#F8F8F8" transform="translate(403.25,876)"/>
<path d="M0 0 C5.28 0 10.56 0 16 0 C16 35.64 16 71.28 16 108 C10.72 108 5.44 108 0 108 C0 72.36 0 36.72 0 0 Z " fill="#204D37" transform="translate(739,831)"/>
<path d="M0 0 C2 0 2 0 4.33203125 2.20703125 C5.21246094 3.12871094 6.09289062 4.05039063 7 5 C7.76699219 5.76699219 8.53398438 6.53398437 9.32421875 7.32421875 C15.21614583 13.21614583 21.10807292 19.10807292 27 25 C28.29599121 26.28922363 28.29599121 26.28922363 29.61816406 27.60449219 C31.38431428 29.38078021 33.11272219 31.16318636 34.796875 33.015625 C35.27656738 33.5405957 35.75625977 34.06556641 36.25048828 34.60644531 C36.74532715 35.14881836 37.24016602 35.69119141 37.75 36.25 C45.53903276 45.71238718 45.53903276 45.71238718 55 53 C55 53.66 55 54.32 55 55 C48.88028258 55.12412058 42.76130689 55.21458556 36.640625 55.2746582 C34.56106798 55.29971505 32.48159826 55.33377021 30.40234375 55.37719727 C27.40342606 55.43823845 24.40567822 55.46629842 21.40625 55.48828125 C20.02451599 55.52699089 20.02451599 55.52699089 18.61486816 55.56648254 C12.2898972 55.56919597 7.69188834 54.42454997 3 50 C-0.45208762 44.45718148 -0.40119455 39.23184513 -0.29296875 32.91015625 C-0.28872391 31.96563095 -0.28447906 31.02110565 -0.28010559 30.04795837 C-0.26340933 27.05250676 -0.22577406 24.0577458 -0.1875 21.0625 C-0.17244146 19.02279622 -0.1587551 16.98308183 -0.14648438 14.94335938 C-0.11353547 9.96197639 -0.06181604 4.98110501 0 0 Z " fill="#428A65" transform="translate(573,193)"/>
<path d="M0 0 C5.9090625 -0.0928125 5.9090625 -0.0928125 11.9375 -0.1875 C13.77235962 -0.22846802 13.77235962 -0.22846802 15.64428711 -0.27026367 C23.58840453 -0.33022657 30.0863265 0.5326841 36.875 4.8125 C41.10809069 9.17009335 42.2113837 12.89045518 42.4375 18.875 C42.28070636 24.36959455 41.42610969 28.62219317 38 33 C32.44441748 37.58939425 26.86544616 39.26599452 19.7265625 39.1953125 C18.68580566 39.19031738 17.64504883 39.18532227 16.57275391 39.18017578 C14.61861572 39.15286377 14.61861572 39.15286377 12.625 39.125 C8.45875 39.08375 4.2925 39.0425 0 39 C0 26.13 0 13.26 0 0 Z " fill="#F7F8F8" transform="translate(209,848)"/>
<path d="M0 0 C1.13560664 -0.00218016 1.13560664 -0.00218016 2.29415482 -0.00440437 C4.82141812 -0.00804279 7.34862028 -0.00458801 9.8758831 -0.0011425 C11.70992307 -0.00229517 13.5439628 -0.00388367 15.37800205 -0.00586975 C20.41064861 -0.01004299 25.4432762 -0.00798141 30.47592282 -0.00488353 C35.90607853 -0.00262154 41.33623097 -0.00611301 46.76638603 -0.00886345 C57.40068428 -0.01331137 68.03497547 -0.01234906 78.66927399 -0.00945081 C87.31033743 -0.00719318 95.95139889 -0.00688582 104.59246254 -0.00797462 C105.82190667 -0.00812786 107.05135081 -0.00828109 108.31805082 -0.00843897 C110.81555217 -0.00875869 113.31305351 -0.0090829 115.81055485 -0.00941156 C138.56419254 -0.01218212 161.31782663 -0.00930832 184.07146371 -0.00406896 C204.84358303 0.00067774 225.61569621 0.00025093 246.38781548 -0.00452995 C269.72803271 -0.00988396 293.06824655 -0.01198993 316.40846431 -0.00891769 C318.896209 -0.00859914 321.38395369 -0.00828476 323.87169838 -0.00797462 C325.70778956 -0.00774321 325.70778956 -0.00774321 327.58097348 -0.00750712 C336.21445539 -0.00664303 344.84793513 -0.0081025 353.4814167 -0.01045418 C363.99853035 -0.01325594 374.51563652 -0.01250588 385.03274931 -0.00717343 C390.4005087 -0.00454171 395.76825563 -0.00352248 401.13601494 -0.00682259 C406.04704082 -0.00979629 410.95804265 -0.00817471 415.86906634 -0.00284503 C417.64819518 -0.00172547 419.42732603 -0.00230187 421.20645358 -0.00472082 C423.62040201 -0.00775183 426.03426759 -0.0046522 428.44821167 0 C429.14249218 -0.00234117 429.8367727 -0.00468233 430.55209202 -0.00709444 C434.50216229 0.00816951 438.22179127 0.36936016 442.09826469 1.12584114 C442.09826469 1.45584114 442.09826469 1.78584114 442.09826469 2.12584114 C437.51953464 3.01936519 433.09758005 3.2673603 428.44821167 3.25168228 C427.69404746 3.25313572 426.93988325 3.25458916 426.16286558 3.25608665 C423.63342791 3.25973872 421.10405081 3.25626387 418.57461357 3.25282478 C416.7437251 3.25397691 414.91283687 3.25556506 413.08194911 3.25755203 C408.0486451 3.26173275 403.01536 3.25966029 397.9820559 3.25656581 C392.55455347 3.25430681 387.12705432 3.25779385 381.69955254 3.26054573 C371.06564587 3.26499721 360.43174625 3.26402966 349.7978393 3.26113309 C341.15579174 3.25887639 332.51374615 3.2585677 323.87169838 3.25965691 C322.02799188 3.25988676 322.02799188 3.25988676 320.14703878 3.26012125 C317.65018583 3.26044097 315.15333289 3.26076518 312.65647994 3.26109384 C289.89928052 3.26386551 267.14208469 3.26098901 244.38488588 3.25575124 C223.61307389 3.25100678 202.84126804 3.25142922 182.0694561 3.25621223 C158.73216403 3.26156802 135.39487534 3.26367102 112.05758274 3.26059997 C109.56920934 3.26028142 107.08083594 3.25996705 104.59246254 3.25965691 C103.3680932 3.25950263 102.14372387 3.25934836 100.88225243 3.2591894 C92.25073523 3.25832569 83.61922019 3.25978404 74.98770332 3.26213646 C64.46840252 3.2649403 53.94910918 3.26418386 43.42980923 3.25885572 C38.06181594 3.25622645 32.6938351 3.25520056 27.3258419 3.25850487 C22.41216435 3.26148378 17.49851078 3.25984832 12.5848354 3.25452732 C10.80695708 3.25340995 9.02907675 3.25397926 7.25119974 3.2564031 C4.83410438 3.2594457 2.41709109 3.25632266 0 3.25168228 C-1.03439727 3.25519403 -1.03439727 3.25519403 -2.08969146 3.25877672 C-6.77891955 3.24079547 -11.26768567 2.7762934 -15.90173531 2.12584114 C-15.90173531 1.79584114 -15.90173531 1.46584114 -15.90173531 1.12584114 C-10.57206237 0.37774864 -5.38579579 -0.01828462 0 0 Z " fill="#478E6B" transform="translate(299.90173530578613,60.87415885925293)"/>
<path d="M0 0 C14.19 0 28.38 0 43 0 C39.52585057 11.5804981 34.97987647 20.72878849 27.75 30.25 C27.32581787 30.81114502 26.90163574 31.37229004 26.46459961 31.95043945 C24.36579183 34.62070273 23.29242831 35.9025239 20 37 C0 11.72222222 0 11.72222222 0 0 Z " fill="#F8FAF9" transform="translate(666,448)"/>
<path d="M0 0 C2.15106016 2.15106016 2.6373979 3.38483343 3.60400391 6.21850586 C3.90416412 7.08958481 4.20432434 7.96066376 4.51358032 8.85813904 C4.83136444 9.80085159 5.14914856 10.74356415 5.4765625 11.71484375 C5.80667328 12.68152481 6.13678406 13.64820587 6.47689819 14.6441803 C7.17397957 16.69011959 7.86812563 18.73706097 8.55957031 20.78491211 C9.62037126 23.92380365 10.69227673 27.0587393 11.765625 30.19335938 C12.44077187 32.17946065 13.1152728 34.16578164 13.7890625 36.15234375 C14.11089508 37.09303207 14.43272766 38.0337204 14.76431274 39.00291443 C15.05816864 39.87714554 15.35202454 40.75137665 15.65478516 41.65209961 C15.91522614 42.42106064 16.17566711 43.19002167 16.44400024 43.98228455 C17 46 17 46 17 49 C5.78 49 -5.44 49 -17 49 C-15.0225641 42.40854701 -12.98637563 35.94760052 -10.64453125 29.4921875 C-10.33803146 28.64069122 -10.03153168 27.78919495 -9.71574402 26.91189575 C-8.75047818 24.23202776 -7.78155992 21.55349805 -6.8125 18.875 C-6.15144905 17.04175451 -5.49063964 15.2084219 -4.83007812 13.375 C-3.22283783 8.91565643 -1.61232393 4.45750792 0 0 Z " fill="#FBFCFC" transform="translate(570,436)"/>
<path d="M0 0 C3.82775615 3.21879495 6.18919104 6.33001899 8 11 C8 12.98 8 14.96 8 17 C-4.87 17 -17.74 17 -31 17 C-31 9.28939627 -29.98359834 6.51603406 -25 1 C-17.60974309 -4.90588907 -7.99339269 -4.54526251 0 0 Z " fill="#F7F9F8" transform="translate(492,876)"/>
<path d="M0 0 C0.39676869 7.40634895 -0.53582886 12.91978607 -5.25 18.8125 C-11.07107102 23.4428974 -16.04196964 24.64923346 -23.40234375 24.40625 C-27.76944511 23.72327475 -29.24207948 22.48368907 -32 19 C-33.40558569 15.01616857 -33.45757885 12.08373937 -31.8125 8.1875 C-27.96825152 3.54788977 -24.20894915 2.30822426 -18.375 1.3125 C-17.31345703 1.12143677 -17.31345703 1.12143677 -16.23046875 0.92651367 C-10.79671541 0.004186 -5.51163598 -0.35772637 0 0 Z " fill="#F5F7F7" transform="translate(705,903)"/>
<path d="M0 0 C0.39285921 8.17729173 0.12707714 13.28131368 -5.3125 19.75 C-10.52737062 24.11593819 -15.76921698 24.43599373 -22.3671875 24.328125 C-26.26133427 23.84280107 -28.09656281 22.59781223 -31 20 C-32.73873643 16.52252713 -32.59073264 12.7938163 -32 9 C-28.43346552 4.34369109 -25.06255622 2.35812873 -19.35546875 1.3671875 C-17.96707312 1.19545445 -16.57768337 1.03160422 -15.1875 0.875 C-14.50107422 0.78863281 -13.81464844 0.70226562 -13.10742188 0.61328125 C-8.70806461 0.08885456 -4.42952243 -0.08106316 0 0 Z " fill="#F7F8F8" transform="translate(324,903)"/>
<path d="M0 0 C5.61 0 11.22 0 17 0 C17 20.13 17 40.26 17 61 C16.67 61 16.34 61 16 61 C16 41.53 16 22.06 16 2 C11.38 2 6.76 2 2 2 C2 36.65 2 71.3 2 107 C6.62 107 11.24 107 16 107 C16 98.42 16 89.84 16 81 C16.33 81 16.66 81 17 81 C17 89.91 17 98.82 17 108 C11.39 108 5.78 108 0 108 C0 72.36 0 36.72 0 0 Z " fill="#0B3821" transform="translate(773,831)"/>
<path d="M0 0 C5.28 0 10.56 0 16 0 C16 2.97 16 5.94 16 9 C15.67 9 15.34 9 15 9 C15 6.36 15 3.72 15 1 C10.71 1 6.42 1 2 1 C2.33 34.66 2.66 68.32 3 103 C7.29 103 11.58 103 16 103 C16 91.45 16 79.9 16 68 C16.33 68 16.66 68 17 68 C17 80.54 17 93.08 17 106 C11.39 106 5.78 106 0 106 C0 71.02 0 36.04 0 0 Z " fill="#0C3D25" transform="translate(358,862)"/>
<path d="M0 0 C1 3 1 3 0 6 C-0.2320999 9.61474101 -0.38150234 13.22830977 -0.5234375 16.84765625 C-0.68070312 17.88792969 -0.83796875 18.92820312 -1 20 C-1.99 20.66 -2.98 21.32 -4 22 C-4 17.71 -4 13.42 -4 9 C-3.34 9 -2.68 9 -2 9 C-1.7834375 7.329375 -1.7834375 7.329375 -1.5625 5.625 C-1 2 -1 2 0 0 Z " fill="#315A44" transform="translate(376,886)"/>
<path d="M0 0 C4.29 0 8.58 0 13 0 C13 0.99 13 1.98 13 3 C8.71 3 4.42 3 0 3 C0 2.01 0 1.02 0 0 Z " fill="#305D48" transform="translate(392,938)"/>
<path d="M0 0 C0.66 0 1.32 0 2 0 C3.60725635 3.21451269 3.05748185 6.43612536 3 10 C-1.455 10.495 -1.455 10.495 -6 11 C-6 10.34 -6 9.68 -6 9 C-4.02 8.67 -2.04 8.34 0 8 C0 5.36 0 2.72 0 0 Z " fill="#F0F5F3" transform="translate(702,881)"/>
<path d="M0 0 C1.4036827 4.21104811 -0.14075051 6.07491775 -2 10 C-2.309375 10.763125 -2.61875 11.52625 -2.9375 12.3125 C-4.28747916 14.45658454 -5.68161275 15.0726451 -8 16 C-6.57250019 12.20950293 -4.83763458 8.72877544 -2.875 5.1875 C-2.33617187 4.21167969 -1.79734375 3.23585938 -1.2421875 2.23046875 C-0.83226562 1.49441406 -0.42234375 0.75835938 0 0 Z " fill="#216F49" transform="translate(776,549)"/>
<path d="M0 0 C0.33 0 0.66 0 1 0 C1.33 2.97 1.66 5.94 2 9 C-5.425 8.01 -5.425 8.01 -13 7 C-13 6.67 -13 6.34 -13 6 C-9.04 6 -5.08 6 -1 6 C-0.67 4.02 -0.34 2.04 0 0 Z " fill="#2B5C45" transform="translate(572,868)"/>
<path d="M0 0 C1.09658936 3.28976808 0.79953138 4.71303767 0 8 C-0.66 8 -1.32 8 -2 8 C-2.66 9.32 -3.32 10.64 -4 12 C-3.45660208 7.43545749 -2.20536179 4.0271824 0 0 Z " fill="#24734C" transform="translate(551,436)"/>
<path d="M0 0 C0.66 0.33 1.32 0.66 2 1 C2 2.98 2 4.96 2 7 C0.35 7 -1.3 7 -3 7 C-3 6.34 -3 5.68 -3 5 C-2.01 5 -1.02 5 0 5 C0 3.35 0 1.7 0 0 Z " fill="#ECF0EE" transform="translate(498,886)"/>
<path d="M0 0 C2.31 0 4.62 0 7 0 C7 0.99 7 1.98 7 3 C4.69 3 2.38 3 0 3 C0 2.01 0 1.02 0 0 Z " fill="#2D5E4A" transform="translate(682,860)"/>
</svg>
